<svg width="48" height="48" viewBox="0 0 48 48" fill="none" xmlns="http://www.w3.org/2000/svg">
<path d="M31.7817 28L42.4416 19M39.8832 16.4L45 21.6M14.7259 18C14.7259 12 17.9239 9 22.1878 9C26.4518 9 29.6497 12 29.6497 18M8.32995 24H6.19797C5.34982 24 4.5364 24.3161 3.93666 24.8787C3.33693 25.4413 3 26.2044 3 27V31C3 31.7956 3.33693 32.5587 3.93666 33.1213C4.5364 33.6839 5.34982 34 6.19797 34H8.32995M12.1675 18H27.9442C30.0636 18 31.7817 19.6118 31.7817 21.6V35.4C31.7817 37.3882 30.0636 39 27.9442 39H12.1675C10.0481 39 8.32995 37.3882 8.32995 35.4V21.6C8.32995 19.6118 10.0481 18 12.1675 18Z" stroke="#1E4D2E" stroke-width="1.80556" stroke-linecap="round" stroke-linejoin="round"/>
</svg>
